<svg width="48" height="48" viewBox="0 0 48 48" fill="none" xmlns="http://www.w3.org/2000/svg">
<circle cx="24" cy="24" r="23" fill="white" stroke="#36D6AD" stroke-width="2"/>
<path d="M24.6 20.3992C22.8494 20.3992 21.1707 19.7039 19.933 18.4662C18.6953 17.2284 18 15.5498 18 13.7992C18 12.0486 18.6953 10.37 19.933 9.13224C21.1707 7.89453 22.8494 7.19922 24.6 7.19922C26.3506 7.19922 28.0292 7.89453 29.2669 9.13224C30.5046 10.37 31.2 12.0486 31.2 13.7992C31.1979 15.5491 30.5019 17.2264 29.2649 18.4641C28.0272 19.7011 26.3499 20.3978 24.6 20.3992ZM24.6 8.39921C23.1675 8.39921 21.794 8.96836 20.7812 9.98115C19.7685 10.9939 19.2 12.3674 19.2 13.7992C19.2 15.231 19.7691 16.6051 20.7812 17.6172C21.794 18.63 23.1675 19.1992 24.6 19.1992C26.0324 19.1992 27.4052 18.63 28.418 17.6172C29.4308 16.6044 30 15.231 30 13.7992C29.9986 12.3674 29.4288 10.9946 28.4167 9.98252C27.4045 8.97041 26.0317 8.40059 24.6 8.39921Z" fill="#36D6AD"/>
<path d="M36.3174 37.2005H12.8825C12.3957 37.1998 12.0007 36.8049 12 36.318V34.2005C12 30.8591 13.3275 27.6541 15.6905 25.2911C18.0535 22.9281 21.2585 21.6006 24.6 21.6006C27.9414 21.6006 31.1465 22.9281 33.5094 25.2911C35.8724 27.6541 37.1999 30.8591 37.1999 34.2005V36.318C37.1992 36.8049 36.8043 37.1998 36.3174 37.2005ZM13.2 36.0005H35.9999V34.2005C35.9999 31.1772 34.7992 28.2774 32.6612 26.14C30.5231 24.002 27.6239 22.8006 24.6006 22.8006C21.5773 22.8006 18.6775 24.002 16.5394 26.14C14.4014 28.2781 13.2007 31.1772 13.2007 34.2005V36.0005H13.2Z" fill="#36D6AD"/>
</svg>
