<svg width="18" height="16" viewBox="0 0 18 16" fill="none" xmlns="http://www.w3.org/2000/svg">
<path d="M12.3648 8.1598C12.258 8.56749 11.7626 8.63046 11.4611 8.33601C11.2714 8.15074 11.2163 7.87121 11.2716 7.61188C11.4343 6.85044 11.2089 6.20412 10.5955 5.67291C9.98847 5.14726 9.33819 4.95036 8.64464 5.08222C8.39417 5.12984 8.12726 5.08031 7.94486 4.90218C7.63788 4.6024 7.70253 4.09218 8.12045 3.99501C8.40682 3.92842 8.7 3.89513 9 3.89513C9.96818 3.89513 10.7898 4.22472 11.4648 4.8839C12.1398 5.54307 12.4773 6.3454 12.4773 7.29089C12.4773 7.58385 12.4398 7.87349 12.3648 8.1598ZM15.0633 11.1993C14.8494 11.3699 14.5434 11.346 14.3477 11.1549C14.0976 10.9106 14.1296 10.5005 14.3997 10.2786C14.8503 9.90838 15.2561 9.5084 15.617 9.07865C16.4826 8.04808 16.4552 6.54898 15.6032 5.5071C15.0555 4.83726 14.4021 4.26331 13.6432 3.78527C12.2795 2.92634 10.8 2.49688 9.20455 2.49688C8.63182 2.49688 8.04545 2.55015 7.44545 2.65668C7.05128 2.72667 6.71301 2.80528 6.43065 2.89251C6.18713 2.96774 5.91579 2.91817 5.73536 2.73814C5.42577 2.42923 5.52605 1.91297 5.94482 1.78683C6.24048 1.69776 6.56683 1.61485 6.92386 1.53808C7.66705 1.37828 8.39318 1.29838 9.10227 1.29838C11.0523 1.29838 12.8352 1.84103 14.4511 2.92634C15.3693 3.543 16.1476 4.27895 16.7862 5.13421C17.7369 6.40739 17.73 8.17142 16.7742 9.4407C16.7268 9.50368 16.6785 9.56611 16.6295 9.62797C16.1679 10.2108 15.6458 10.7345 15.0633 11.1993ZM16.2844 15.5465C16.0589 15.7949 15.6728 15.8083 15.4307 15.576L13.6452 13.8635C12.9081 13.1566 11.8279 12.9659 10.8205 13.1336C10.2205 13.2335 9.61364 13.2834 9 13.2834C7.00909 13.2834 5.20227 12.7407 3.57955 11.6554C2.61198 11.0083 1.79713 10.2298 1.13499 9.31992C0.255823 8.11179 0.250812 6.46771 1.13523 5.26342C1.27618 5.0715 1.42608 4.88211 1.58495 4.69526C2.23569 3.92991 2.28687 2.77259 1.56814 2.0707L0.767035 1.28838C0.525016 1.05203 0.522731 0.663505 0.761954 0.424329C0.997165 0.189162 1.37777 0.186923 1.61574 0.419307L16.2595 14.7197C16.4888 14.9437 16.4998 15.3091 16.2844 15.5465ZM4.83408 5.28006C4.20262 4.6634 3.20622 4.58081 2.61633 5.23734C2.5035 5.36292 2.39162 5.49479 2.28068 5.63296C1.50158 6.6033 1.51568 7.97275 2.29359 8.94405C2.87515 9.67019 3.57994 10.2877 4.40795 10.7965C5.80568 11.6554 7.39091 12.0849 9.16364 12.0849C9.61364 12.0849 10.0568 12.0583 10.4932 12.005C10.9841 11.9451 11.1028 11.4018 10.7489 11.0563L10.5765 10.8878C10.3286 10.6457 9.95621 10.5844 9.61364 10.6367C9.39545 10.67 9.19091 10.6866 9 10.6866C8.04545 10.6866 7.22727 10.3604 6.54545 9.70786C5.86364 9.05535 5.52273 8.24969 5.52273 7.29089C5.52273 7.09114 5.53977 6.89139 5.57386 6.69164C5.63086 6.35768 5.56757 5.99635 5.32519 5.75966L4.83408 5.28006Z" fill="#BCBCBC"/>
</svg>
